<svg width="57" height="56" viewBox="0 0 57 56" fill="none" xmlns="http://www.w3.org/2000/svg">
<circle cx="28.582" cy="28" r="28" fill="#274C5B"/>
<path d="M25.3599 39.0001C26.0349 39.0001 26.5821 38.4529 26.5821 37.7779C26.5821 37.1029 26.0349 36.5557 25.3599 36.5557C24.6849 36.5557 24.1377 37.1029 24.1377 37.7779C24.1377 38.4529 24.6849 39.0001 25.3599 39.0001Z" fill="white" stroke="white" stroke-width="1.5" stroke-linecap="round" stroke-linejoin="round"/>
<path d="M33.9156 39.0001C34.5906 39.0001 35.1378 38.4529 35.1378 37.7779C35.1378 37.1029 34.5906 36.5557 33.9156 36.5557C33.2406 36.5557 32.6934 37.1029 32.6934 37.7779C32.6934 38.4529 33.2406 39.0001 33.9156 39.0001Z" fill="white" stroke="white" stroke-width="1.5" stroke-linecap="round" stroke-linejoin="round"/>
<path d="M15.582 17H19.3639L22.2003 33.0731H37.3279" stroke="white" stroke-width="2" stroke-linecap="round" stroke-linejoin="round"/>
<path d="M21.6932 29.1837L36.9404 29.2907C37.0497 29.2908 37.1557 29.2529 37.2403 29.1837C37.3249 29.1144 37.3828 29.0179 37.4043 28.9107L39.1061 20.4014C39.1199 20.3328 39.1182 20.262 39.1013 20.1941C39.0843 20.1262 39.0525 20.063 39.0081 20.0089C38.9637 19.9548 38.9079 19.9112 38.8446 19.8813C38.7814 19.8514 38.7122 19.8359 38.6423 19.8359L20.1494 19.8359" stroke="white" stroke-width="2" stroke-linecap="round" stroke-linejoin="round"/>
</svg>
